<svg width="58" height="40" viewBox="0 0 58 40" fill="none" xmlns="http://www.w3.org/2000/svg">
<rect x="0.75" y="0.75" width="56.5" height="38.5" rx="8.25" stroke="#E4002B" stroke-width="0.5"/>
<path d="M1 9C1 4.58172 4.58172 1 9 1H49C53.4183 1 57 4.58172 57 9V23H1V9Z" fill="#FFE5DD"/>
<path d="M10.0195 11.1367C8.45312 11.1367 7.47656 10.0039 7.47656 8.1875V8.17969C7.47656 6.35938 8.44922 5.22656 10.0156 5.22656C11.2578 5.22656 12.2109 6.01172 12.3594 7.13281L12.3555 7.15234H11.4883V7.14062C11.3242 6.44922 10.7578 6 10.0156 6C9.00391 6 8.37109 6.83984 8.37109 8.17969V8.1875C8.37109 9.52344 9.00391 10.3633 10.0195 10.3633C10.7656 10.3633 11.3242 9.96484 11.4844 9.32812L11.4922 9.3125H12.3594V9.33594C12.1953 10.418 11.2773 11.1367 10.0195 11.1367ZM15.2109 11.082C13.9648 11.082 13.2031 10.25 13.2031 8.88281V8.875C13.2031 7.51172 13.9688 6.67578 15.2109 6.67578C16.4492 6.67578 17.2148 7.50781 17.2148 8.875V8.88281C17.2148 10.25 16.4531 11.082 15.2109 11.082ZM15.2109 10.375C15.9375 10.375 16.3516 9.82031 16.3516 8.88281V8.875C16.3516 7.93359 15.9375 7.38281 15.2109 7.38281C14.4805 7.38281 14.0703 7.93359 14.0703 8.875V8.88281C14.0703 9.82422 14.4805 10.375 15.2109 10.375ZM18.2266 11V6.75781H19.0742V7.40234H19.1367C19.3438 6.94922 19.75 6.67578 20.3672 6.67578C21.3164 6.67578 21.8398 7.24219 21.8398 8.25391V11H20.9961V8.45312C20.9961 7.75 20.7031 7.40234 20.082 7.40234C19.4609 7.40234 19.0742 7.82812 19.0742 8.51172V11H18.2266ZM24.625 11.0273C23.6914 11.0273 23.3086 10.6992 23.3086 9.88281V7.42578H22.6445V6.75781H23.3086V5.6875H24.1719V6.75781H25.082V7.42578H24.1719V9.67969C24.1719 10.1367 24.3438 10.3242 24.7617 10.3242C24.8906 10.3242 24.9648 10.3203 25.082 10.3086V10.9844C24.9453 11.0078 24.7891 11.0273 24.625 11.0273ZM27.2344 11.0703C26.4258 11.0703 25.8281 10.5781 25.8281 9.80859V9.80078C25.8281 9.04297 26.3984 8.60156 27.4102 8.53906L28.5586 8.47266V8.09766C28.5586 7.63281 28.2656 7.375 27.6914 7.375C27.2227 7.375 26.9141 7.54688 26.8125 7.84766L26.8086 7.86328H25.9922L25.9961 7.83594C26.0977 7.14062 26.7656 6.67578 27.7305 6.67578C28.7969 6.67578 29.3984 7.20703 29.3984 8.09766V11H28.5586V10.3984H28.4922C28.2422 10.8281 27.7969 11.0703 27.2344 11.0703ZM26.6719 9.77344C26.6719 10.1641 27.0039 10.3945 27.4609 10.3945C28.0938 10.3945 28.5586 9.98047 28.5586 9.43359V9.07031L27.5234 9.13672C26.9375 9.17188 26.6719 9.38281 26.6719 9.76562V9.77344ZM32.3789 11.082C31.1406 11.082 30.3828 10.2383 30.3828 8.86719V8.85938C30.3828 7.51562 31.1367 6.67578 32.375 6.67578C33.4414 6.67578 34.0781 7.27734 34.1953 8.10156V8.12109L33.3828 8.125L33.3789 8.11328C33.2852 7.69531 32.9414 7.38281 32.3789 7.38281C31.6719 7.38281 31.2461 7.94531 31.2461 8.85938V8.86719C31.2461 9.80469 31.6797 10.375 32.3789 10.375C32.9102 10.375 33.2383 10.1328 33.375 9.67578L33.3828 9.65625H34.1953L34.1875 9.69141C34.0352 10.5156 33.4297 11.082 32.3789 11.082ZM36.8203 11.0273C35.8867 11.0273 35.5039 10.6992 35.5039 9.88281V7.42578H34.8398V6.75781H35.5039V5.6875H36.3672V6.75781H37.2773V7.42578H36.3672V9.67969C36.3672 10.1367 36.5391 10.3242 36.957 10.3242C37.0859 10.3242 37.1602 10.3203 37.2773 10.3086V10.9844C37.1406 11.0078 36.9844 11.0273 36.8203 11.0273ZM42.8281 11.1367C41.4141 11.1367 40.543 10.2969 40.543 9.05859V5.36328H41.418V8.99219C41.418 9.80859 41.9297 10.3633 42.8281 10.3633C43.7266 10.3633 44.2344 9.80859 44.2344 8.99219V5.36328H45.1094V9.05859C45.1094 10.2969 44.2461 11.1367 42.8281 11.1367ZM47.9648 11.082C46.9414 11.082 46.293 10.6016 46.2109 9.89062V9.88672H47.0586L47.0625 9.89062C47.168 10.2109 47.4766 10.4258 47.9805 10.4258C48.5039 10.4258 48.8672 10.1875 48.8672 9.83984V9.83203C48.8672 9.56641 48.668 9.38672 48.1758 9.27344L47.5 9.11719C46.6992 8.93359 46.3281 8.57031 46.3281 7.94922V7.94531C46.3281 7.20703 47.0156 6.67578 47.9766 6.67578C48.9453 6.67578 49.5664 7.16016 49.6406 7.85156V7.85547H48.832V7.84766C48.75 7.55078 48.4492 7.32812 47.9727 7.32812C47.5078 7.32812 47.1719 7.55859 47.1719 7.89844V7.90625C47.1719 8.17188 47.3672 8.33594 47.8438 8.44922L48.5156 8.60156C49.332 8.79297 49.7227 9.14062 49.7227 9.75391V9.76172C49.7227 10.5469 48.9727 11.082 47.9648 11.082Z" fill="#E4002B"/>
<rect x="1" y="15" width="56" height="24" rx="8" fill="#E4002B"/>
<path fill-rule="evenodd" clip-rule="evenodd" d="M12.6878 27.3148C15.3472 29.9734 15.9505 26.8976 17.6437 28.5897C19.2761 30.2217 20.2144 30.5486 18.1461 32.6163C17.887 32.8245 16.241 35.3293 10.4564 29.5463C4.67097 23.7625 7.17435 22.1148 7.38261 21.8558C9.45587 19.7824 9.7772 20.7261 11.4096 22.3581C13.1029 24.0508 10.0284 24.6561 12.6878 27.3148Z" fill="white"/>
<path d="M28.36 32H26.33V24.706L25.14 24.944V23.152L28.36 22.564V32ZM32.0868 32V29.83H29.1188V28.346L31.9888 22.648H33.9348V28.262H34.9568V29.83H33.9348V32H32.0868ZM32.0308 25.364L30.6448 28.22V28.262H32.0868V25.364H32.0308ZM38.3092 22.536C40.2412 22.536 41.2212 24.202 41.2212 27.324C41.2212 30.446 40.2412 32.112 38.3092 32.112C36.3912 32.112 35.4112 30.446 35.4112 27.324C35.4112 24.202 36.3912 22.536 38.3092 22.536ZM38.3092 30.334C38.9952 30.334 39.2192 29.494 39.2192 27.324C39.2192 25.154 38.9952 24.314 38.3092 24.314C37.6372 24.314 37.4132 25.154 37.4132 27.324C37.4132 29.494 37.6372 30.334 38.3092 30.334ZM47.0183 30.334V32H41.7823V30.558C44.4983 27.492 45.0443 26.638 45.0443 25.364C45.0443 24.678 44.7783 24.244 44.2883 24.244C43.8123 24.244 43.5463 24.678 43.5463 25.238C43.5463 25.602 43.6583 25.882 43.8263 26.12L42.2443 26.876C41.9223 26.442 41.7123 25.868 41.7123 25.154C41.7123 23.754 42.6783 22.536 44.3163 22.536C45.9683 22.536 46.9763 23.6 46.9763 25.336C46.9763 26.806 46.1783 28.248 44.2043 30.334H47.0183ZM52.7741 30.334V32H47.5381V30.558C50.2541 27.492 50.8001 26.638 50.8001 25.364C50.8001 24.678 50.5341 24.244 50.0441 24.244C49.5681 24.244 49.3021 24.678 49.3021 25.238C49.3021 25.602 49.4141 25.882 49.5821 26.12L48.0001 26.876C47.6781 26.442 47.4681 25.868 47.4681 25.154C47.4681 23.754 48.4341 22.536 50.0721 22.536C51.7241 22.536 52.7321 23.6 52.7321 25.336C52.7321 26.806 51.9341 28.248 49.9601 30.334H52.7741Z" fill="white"/>
</svg>
